<?xml version="1.0" encoding="UTF-8"?>
<svg id="Layer_2" data-name="Layer 2" xmlns="http://www.w3.org/2000/svg" viewBox="0 0 93.73 164.01">
  <defs>
    <style>
      .cls-1 {
        fill: #231f20;
        stroke-width: 0px;
      }
    </style>
  </defs>
  <g id="Layer_1-2" data-name="Layer 1">
    <path class="cls-1" d="M1.43,3.26c-2.3,2.13-1.6,5.74.49,7.74,1.09,1.04,2.46,1.66,3.97,1.74s3.18-.47,4.48-1.3c1.37-.87,2.54-2.01,3.57-3.25.41-.5.76-1.09.73-1.77s-.26-1.28-.73-1.77c-1.51-1.54-3.28-3.13-5.49-3.48-1.33-.21-2.64-.08-3.81.65-.9.56-1.74,1.39-2.17,2.37-.58,1.31-.7,2.72,0,4.02.55,1.04,1.6,1.86,2.76,2.08,2.41.47,5.11-.99,5.73-3.46C11.71,3.82,9.51.92,6.66.09c-1.04-.3-2.29.2-2.82,1.15-.65,1.15-1,2.52-.87,3.84.15,1.56.71,2.88,1.72,4.08.84,1,2.68.94,3.54,0,.98-1.07.9-2.46,0-3.54-.24-.28.14.2.15.2-.01,0-.13-.2-.14-.22-.05-.07-.09-.15-.13-.23-.05-.09-.21-.46-.04-.06s-.03-.14-.06-.26c-.05-.19-.08-.38-.11-.58l.09.66c-.04-.39-.04-.78.01-1.17l-.09.66c.04-.24.09-.47.16-.7.08-.25.22-.25-.09.17.07-.1.12-.24.18-.35l-2.82,1.15c.08.02.16.05.24.08.24.09.16.06-.24-.1.11.07.23.12.34.18.07.05.15.09.22.14-.31-.25-.4-.32-.25-.19.11.1.22.2.33.31.06.06.11.13.17.19l-.24-.3c.05.03.27.37.26.43l-.15-.37c.03.08.06.15.08.23.05.16.08.32.1.48l-.09-.66c.02.21.02.41,0,.62l.09-.66c-.02.13-.07.25-.09.37-.04.24.33-.64.08-.23-.26.43.42-.43.12-.14-.07.07-.16.14-.22.21.35-.42.43-.31.18-.15-.09.05-.19.09-.27.15.57-.37.46-.18.22-.11-.13.04-.26.06-.39.08l.66-.09c-.2.02-.39.02-.58,0l.66.09c-.14-.03-.62-.2-.16-.01.41.17.18.07.09.01-.2-.13.52.46.24.17-.23-.23.21.24.19.26,0,0-.1-.18-.11-.18.08,0,.19.69.13.27-.01-.08-.03-.16-.04-.24l.09.66c-.01-.13,0-.26,0-.39l-.09.66c.02-.14.05-.26.08-.39.09-.38-.33.64-.05.12.13-.23.44-.48-.09.06.09-.09.17-.2.26-.29.2-.19.48-.25-.12.07.13-.07.26-.16.38-.24.35-.21-.67.22-.08.04.14-.04.28-.07.43-.09l-.66.09c.25-.02.49-.01.74.02l-.66-.09c.2.03.4.07.6.13.09.03.17.05.26.08.46.16-.1-.1-.16-.07.08-.03.49.26.55.29.18.11.35.23.53.35.27.19-.1-.07-.17-.13.07.06.15.12.22.18.16.14.33.28.48.43.33.31.65.62.97.95v-3.54c-.71.86-1.48,1.6-2.31,2.33l.28-.22c-.08.06-.15.11-.23.16-.1.07-.19.13-.29.19-.21.14-.43.26-.66.37-.2.1-.55.16.1-.03-.13.04-.26.09-.38.13-.26.08-.52.14-.79.18l.66-.09c-.38.05-.76.07-1.14.02l.66.09c-.17-.03-.34-.06-.51-.12-.25-.08-.35-.24.21.1-.07-.05-.16-.08-.23-.12-.11-.06-.62-.43-.23-.13.36.28.09.06,0,0s-.15-.15-.23-.22c-.06-.06-.12-.13-.18-.2-.2-.21.37.53.17.21-.09-.15-.19-.29-.27-.44-.11-.22-.12-.46.08.23-.02-.08-.06-.16-.08-.24-.05-.17-.09-.35-.12-.52l.09.66c-.03-.22-.03-.44,0-.66l-.09.66c.02-.12.05-.24.08-.36.09-.36-.32.59-.11.25.05-.08.11-.16.15-.24-.32.61-.28.35-.05.13.96-.89.97-2.65,0-3.54-1.03-.95-2.51-.95-3.54,0h0Z"/>
    <path class="cls-1" d="M7.43,9.86c3.22,0,3.22-5,0-5s-3.22,5,0,5h0Z"/>
    <path class="cls-1" d="M77.86,30.1c-1.69,1.99-1.86,4.72-.55,6.98,1.2,2.07,3.49,3.22,5.79,3.55s4.42.1,6.53-.84c1.79-.8,3.47-2.36,3.94-4.32,1.26-5.25-5.03-8.85-9.53-8.68-2.52.09-4.78,1.19-6.32,3.19s-1.96,4.65-.9,6.98c.99,2.16,3.51,3.68,5.87,3.58,1.86-.08,3.89-1.04,3.85-3.18,0-.28,0,.22-.03.23.09-.05.07-.57.03-.2-.03.3-.01.03.06-.1.17-.3.05-.25-.04,0,.03-.08.19-.21.24-.26.24-.28,0,.07-.1.05.01,0,.26-.16.3-.19.39-.29-.45.14.05-.02,1.41-.46,1.94-1.68,1.75-3.08-.37-2.65-3.15-4.75-5.78-4.57-2.21.15-3.23,2.6-1.77,4.27.09.1.18.2.26.31-.33-.41-.05,0,.02.08.19.22-.08-.33-.02-.06.05.22.06.12.02-.29-.05-.28,0-.53.17-.76.13-.22.34-.45.57-.57.05-.03.59-.19.27-.12l.44-.06c-.28-.01-.15.03.37.13.46.02.77.26.93.73.37.67.52.84.43.49-.26-1.28-1.85-2.14-3.08-1.75-1.36.44-2.03,1.7-1.75,3.08.52,2.54,3.83,2.92,5.51,1.36.94-.87,1.18-2.06.99-3.29-.18-1.1-.88-2-1.6-2.81l-1.77,4.27c.13,0,.4.03.51,0-.35-.06-.44-.06-.25-.02.08.02.16.04.25.07-.08.05-.51-.26-.05-.01.08.04.15.08.22.13.18.13.19.13.02.01-.24-.39.11.2.12.15-.19-.27-.23-.32-.13-.17.05.07.1.14.14.22.26.38-.07-.46.02.02.03.17.08.33.1.5l1.75-3.08c-2.45.79-4.15,3-4.18,5.6l1.24-2.16c-.46.27-.11-.07.05,0-.03-.01-.32.08-.36.1-.27.13.64,0,.15-.03-.1,0-.36-.05-.44-.02.07-.03.61.14.22.01-.05-.02-.4-.15-.44-.13.15-.07.48.24.18.07-.05-.03-.5-.33-.53-.31.1-.05.4.36.14.11-.11-.11-.22-.22-.33-.32-.36-.34.17.36.06.08-.04-.11-.14-.23-.2-.33-.29-.43.13.54,0,.04-.02-.1-.05-.2-.08-.3-.16-.49,0,.56,0-.01,0-.1.05-.44.01-.52l-.04.32c.02-.11.04-.23.07-.34.03-.11.07-.22.1-.33.14-.55-.27.44.02-.05.08-.13.14-.26.22-.38.09-.14.24-.51-.03,0,.07-.12.2-.24.3-.34.1-.11.22-.21.32-.31.34-.35-.39.24.13-.1.12-.08.25-.16.38-.23l.16-.08c.25-.12.21-.11-.11.03.2-.18.7-.21.95-.27.49-.12,0-.02-.06,0,.15-.06.44-.03.61-.03s.34,0,.51.02c.1,0,.2.01.3.03-.33-.05-.35-.05-.06,0,.34.08.67.15,1,.25.2.06.39.13.58.21-.09-.03-.45-.22-.03,0,.31.15.61.31.91.49.16.1.32.21.48.32.46.29-.27-.28.09.07.13.13.28.25.41.39.05.05.33.49.16.17-.19-.34.08.18.1.21.3.45-.06-.46.02.08,0,.04.06.32.07.33l-.06-.37c0,.1,0,.19,0,.29.02.4,0-.19.04-.24-.02.09-.04.18-.07.27-.08.25-.05.18.11-.21-.11.12-.31.46-.36.61.13-.42.3-.33.06-.12-.09.08-.17.18-.27.26-.42.37-.06-.05.03,0,0,0-.28.19-.26.17-.05.03-.82.5-.85.46l.3-.12c-.1.04-.2.08-.31.12-.1.04-.21.07-.31.1-.29.09-.59.15-.88.22-.39.1-.19-.13.1,0-.08-.03-.31.03-.4.04-.34.02-.69.02-1.03,0-.16,0-.32-.03-.48-.03-.52-.03.46.09-.2-.03-.38-.07-.75-.16-1.12-.28-.18-.06-.54-.08-.02,0-.19-.03-.42-.21-.58-.31-.12-.07-.51-.29-.03.01-.18-.11-.3-.3-.46-.43-.25-.21.3.51.03.04-.1-.17-.2-.34-.29-.52-.16-.29.14.57.04.05-.03-.11-.06-.22-.09-.33-.04-.22-.04-.22,0,0l.02.17c0-.11-.01-.22-.01-.33,0-.11,0-.22.02-.33-.06.37-.06.46-.02.26.02-.03.1-.39.12-.39-.15.35-.17.4-.04.16.15-.22.12-.18-.1.11.85-.99,1.05-2.57,0-3.54-.93-.86-2.63-1.06-3.54,0h0Z"/>
    <path class="cls-1" d="M50.48,10.05c-7.92,13.02-15.85,26.05-23.77,39.07-3.88,6.37-7.75,12.74-11.63,19.11-3.21,5.27-7.55,11.3-7.1,17.81.23,3.27,1.73,6.12,4.38,8.06s5.76,2.5,8.85,2.82c7.11.74,14.24-.93,21.1-2.64,3.4-.85,6.92-2.05,10.42-2.41,1.17-.12,1.69.11,2.24,1.16.73,1.4,1.13,3.03,1.56,4.55,1.83,6.52,2.33,13.33,1.58,20.06-1.69,15.12-11.5,28.91-8.24,44.55.28,1.32,1.83,2.09,3.08,1.75,1.37-.38,2.02-1.75,1.75-3.08-1.32-6.32.04-12.71,1.86-18.78,1.95-6.5,4.5-12.84,5.81-19.51s1.4-13.88.23-20.78c-.56-3.28-1.38-6.59-2.6-9.69s-3.61-5.54-7.31-5.22c-3.47.31-6.95,1.39-10.32,2.23s-6.83,1.72-10.3,2.32-6.76.83-10.14.55c-2.61-.21-5.81-.73-7.63-2.83-3.58-4.14.52-10.84,2.8-14.59,3.87-6.37,7.75-12.74,11.63-19.11,8.7-14.3,17.4-28.6,26.1-42.89,1.68-2.76-2.65-5.27-4.32-2.52h0Z"/>
  </g>
</svg>