<?xml version="1.0" encoding="UTF-8"?>
<svg id="Layer_2" data-name="Layer 2" xmlns="http://www.w3.org/2000/svg" xmlns:xlink="http://www.w3.org/1999/xlink" viewBox="0 0 120.67 176.5">
  <defs>
    <style>
      .cls-1 {
        clip-path: url(#clippath);
      }

      .cls-2 {
        fill: none;
      }

      .cls-2, .cls-3 {
        stroke-width: 0px;
      }
    </style>
    <clipPath id="clippath">
      <rect class="cls-2" width="120.67" height="176.5"/>
    </clipPath>
  </defs>
  <g id="Layer_1-2" data-name="Layer 1">
    <g class="cls-1">
      <path class="cls-3" d="M35.16,87.43c-1.28,1.18-.89,3.18.27,4.29.61.58,1.36.92,2.2.97.86.05,1.76-.26,2.48-.72.76-.48,1.4-1.11,1.97-1.8.23-.28.42-.6.41-.98-.02-.37-.14-.71-.41-.98-.84-.85-1.82-1.74-3.04-1.93-.74-.12-1.46-.04-2.11.36-.5.31-.96.77-1.2,1.31-.32.73-.39,1.5,0,2.23.31.58.88,1.03,1.53,1.15,1.34.26,2.83-.55,3.18-1.92.42-1.68-.8-3.28-2.38-3.74-.58-.17-1.27.11-1.56.64-.36.64-.55,1.4-.48,2.13.08.86.39,1.59.95,2.26.47.56,1.48.52,1.96,0,.54-.59.5-1.36,0-1.96-.13-.16.08.11.08.11,0,0-.07-.11-.08-.12-.02-.04-.05-.08-.07-.13-.03-.05-.12-.26-.02-.03.1.22-.02-.08-.03-.14-.03-.11-.05-.21-.06-.32.02.12.03.25.05.37-.02-.22-.02-.43,0-.65-.02.12-.03.25-.05.37.02-.13.05-.26.09-.39.05-.14.12-.14-.05.1.04-.06.07-.13.1-.19-.52.21-1.04.43-1.56.64.05.01.09.03.14.04.13.05.09.03-.13-.06.06.04.13.07.19.1.04.02.08.05.12.08-.17-.14-.22-.17-.14-.11.06.06.12.11.18.17.03.04.06.07.09.11-.04-.06-.09-.11-.13-.17.03.02.15.21.14.24-.03-.07-.06-.14-.08-.2.02.04.03.08.04.13.03.09.04.18.06.27-.02-.12-.03-.25-.05-.37,0,.12,0,.23,0,.34.02-.12.03-.24.05-.37-.01.07-.04.14-.05.21-.02.13.18-.35.05-.13-.14.24.23-.24.07-.08-.04.04-.09.08-.12.12.19-.23.24-.17.1-.08-.05.03-.1.05-.15.08.32-.21.26-.1.12-.06-.07.02-.14.04-.22.05.12-.02.25-.03.37-.05-.11.01-.21.01-.32,0,.12.02.24.03.37.05-.08-.01-.34-.11-.09,0,.23.09.1.04.05,0-.11-.07.29.25.13.1-.13-.13.12.13.1.14,0,0-.06-.1-.06-.1.05,0,.1.39.07.15,0-.04-.02-.09-.03-.13.02.12.03.25.05.37,0-.07,0-.14,0-.22-.02.12-.03.25-.05.37.01-.08.03-.15.05-.22.05-.21-.18.35-.03.06.07-.13.24-.26-.05.03.05-.05.09-.11.15-.16.11-.11.26-.14-.07.04.07-.04.14-.09.21-.13.19-.12-.37.12-.05.02.08-.02.16-.04.24-.05-.12.02-.24.03-.37.05.14-.01.27,0,.41,0-.12-.02-.25-.03-.37-.05.11.02.22.04.33.07.05.01.1.03.14.05.25.09-.05-.05-.09-.04.04-.02.27.14.3.16.1.06.2.13.29.19.15.11-.06-.04-.09-.07.04.04.08.07.12.1.09.08.18.16.27.24.18.17.36.35.53.52v-1.96c-.39.47-.82.89-1.28,1.29.05-.04.1-.08.15-.12-.04.03-.08.06-.13.09-.05.04-.11.07-.16.11-.12.08-.24.15-.37.21-.11.05-.31.09.05-.02-.07.02-.14.05-.21.07-.14.04-.29.08-.44.1.12-.02.25-.03.37-.05-.21.03-.42.04-.63.01.12.02.25.03.37.05-.1-.01-.19-.03-.28-.06-.14-.05-.19-.13.12.06-.04-.03-.09-.04-.13-.07-.06-.04-.34-.24-.13-.07.2.15.05.04,0,0-.04-.04-.09-.08-.13-.12-.03-.04-.06-.07-.1-.11-.11-.12.21.29.09.12-.05-.08-.1-.16-.15-.25-.06-.12-.07-.26.04.12-.01-.04-.03-.09-.05-.13-.03-.1-.05-.19-.07-.29.02.12.03.25.05.37-.01-.12-.01-.24,0-.37-.02.12-.03.25-.05.37,0-.07.03-.13.04-.2.05-.2-.17.33-.06.14.03-.04.06-.09.08-.14-.18.34-.16.19-.03.07.53-.49.54-1.47,0-1.96-.57-.52-1.39-.53-1.96,0"/>
      <path class="cls-3" d="M38.48,91.08c1.78,0,1.79-2.77,0-2.77s-1.79,2.77,0,2.77"/>
      <path class="cls-3" d="M77.51,102.3c-.94,1.1-1.03,2.61-.31,3.86.67,1.15,1.93,1.78,3.21,1.97,1.26.18,2.45.06,3.62-.47.99-.44,1.92-1.31,2.18-2.39.7-2.91-2.79-4.9-5.28-4.81-1.4.05-2.65.66-3.5,1.77-.86,1.11-1.09,2.58-.5,3.87.55,1.2,1.94,2.04,3.26,1.98,1.03-.04,2.16-.57,2.13-1.76,0-.16,0,.12-.02.13.05-.03.04-.32.02-.11-.02.17,0,.01.03-.06.09-.17.03-.14-.03,0,.02-.04.11-.11.13-.14.13-.15,0,.04-.06.03,0,0,.14-.09.16-.11.22-.16-.25.08.03-.01.78-.25,1.08-.93.97-1.7-.2-1.47-1.74-2.63-3.2-2.53-1.23.08-1.79,1.44-.98,2.36.05.06.1.11.15.17-.19-.23-.03,0,.01.04.11.12-.04-.18-.01-.03.03.12.03.07.01-.16-.03-.15,0-.29.09-.42.07-.12.19-.25.32-.32.03-.01.33-.11.15-.07.08-.01.16-.02.24-.03-.15,0-.08.02.21.07.26.01.43.15.52.4.21.37.28.46.24.27-.15-.71-1.03-1.19-1.7-.97-.75.24-1.12.94-.97,1.7.29,1.41,2.12,1.62,3.05.75.52-.48.66-1.14.55-1.82-.1-.61-.49-1.11-.88-1.56-.33.79-.65,1.58-.98,2.37.07,0,.22.02.28,0-.2-.03-.24-.03-.14,0,.05,0,.09.02.14.04-.04.03-.28-.15-.03,0,.04.02.08.05.12.07.1.07.1.07.01,0-.13-.22.06.11.07.09-.11-.15-.13-.18-.07-.1.03.04.05.08.08.12.14.21-.04-.26.01.01.02.09.04.18.06.28.32-.57.64-1.14.97-1.7-1.36.44-2.3,1.66-2.31,3.1.23-.4.46-.8.69-1.2-.26.15-.06-.04.03,0-.01,0-.18.04-.2.05-.15.07.35,0,.08-.02-.05,0-.2-.03-.25,0,.04-.01.34.08.12,0-.03,0-.22-.08-.24-.07.08-.04.26.14.1.04-.03-.02-.28-.18-.29-.17.06-.03.22.2.08.06-.06-.06-.12-.12-.18-.18-.2-.19.1.2.03.05-.02-.06-.08-.13-.11-.18-.16-.24.07.3,0,.02-.01-.05-.03-.11-.05-.16-.09-.27,0,.31,0,0,0-.06.03-.24,0-.29,0,.06-.02.12-.02.18.01-.06.03-.13.04-.19.02-.06.04-.12.06-.19.08-.31-.15.24.01-.03.04-.07.08-.14.12-.21.05-.08.13-.28-.02,0,.04-.07.11-.13.16-.19.06-.06.12-.11.18-.17.19-.19-.22.14.07-.06.07-.05.14-.09.21-.13.03-.01.06-.03.09-.05.14-.07.12-.06-.06.02.11-.1.39-.12.53-.15.27-.06,0-.01-.04,0,.09-.03.25-.02.34-.02.09,0,.19,0,.28,0,.06,0,.11,0,.17.01-.18-.03-.19-.03-.03,0,.18.04.37.08.55.14.11.03.22.07.32.11-.05-.02-.25-.12-.01,0,.17.09.34.17.5.27.09.06.18.12.27.18.25.16-.15-.16.05.04.07.07.15.14.22.22.03.03.18.28.09.1-.1-.19.05.1.06.11.16.25-.03-.25.01.04,0,.02.03.18.04.18-.01-.07-.02-.14-.03-.2,0,.05,0,.11,0,.16.01.22,0-.1.02-.14,0,.05-.02.1-.04.15-.05.14-.03.1.06-.11-.06.07-.17.26-.2.34.07-.24.16-.18.04-.06-.05.05-.1.1-.15.14-.23.21-.03-.03.01,0,0,0-.15.1-.14.1-.03.02-.45.28-.47.25.05-.02.11-.05.16-.07-.06.02-.11.04-.17.07-.06.02-.12.04-.17.06-.16.05-.33.08-.49.12-.22.05-.1-.07.05,0-.04-.02-.17.02-.22.02-.19.01-.38.01-.57,0-.09,0-.18-.01-.27-.02-.29-.01.26.05-.11-.02-.21-.04-.42-.09-.62-.16-.1-.03-.3-.04-.01,0-.1-.02-.23-.12-.32-.17-.07-.04-.28-.16-.02,0-.1-.06-.17-.16-.26-.24-.14-.12.16.28.01.02-.05-.1-.11-.19-.16-.29-.09-.16.08.32.02.02-.02-.06-.03-.12-.05-.18-.02-.12-.03-.12,0,0,0,.03,0,.06.01.09,0-.06,0-.12,0-.18s0-.12,0-.18c-.03.2-.04.25-.01.15.01-.02.06-.22.06-.21-.08.19-.09.22-.02.09.08-.12.06-.1-.05.06.47-.55.58-1.43,0-1.96-.52-.47-1.46-.59-1.96,0"/>
      <path class="cls-3" d="M62.34,91.19c-4.39,7.22-8.78,14.43-13.17,21.65-2.15,3.53-4.3,7.06-6.44,10.59-1.78,2.92-4.18,6.26-3.93,9.87.13,1.81.96,3.39,2.43,4.47,1.42,1.04,3.19,1.39,4.9,1.56,3.94.41,7.89-.51,11.69-1.47,1.88-.47,3.84-1.13,5.77-1.34.65-.07.94.06,1.24.64.4.78.63,1.68.86,2.52,1.01,3.61,1.29,7.39.87,11.12-.94,8.38-6.37,16.02-4.56,24.69.15.73,1.01,1.16,1.7.97.76-.21,1.12-.97.97-1.7-.73-3.5.02-7.04,1.03-10.4,1.08-3.6,2.49-7.11,3.22-10.81.75-3.81.78-7.69.13-11.51-.31-1.82-.76-3.65-1.44-5.37-.7-1.79-2-3.07-4.05-2.89-1.93.17-3.85.77-5.72,1.24-1.89.47-3.79.95-5.71,1.29-1.85.32-3.74.46-5.62.31-1.45-.12-3.22-.4-4.22-1.57-1.99-2.29.29-6.01,1.55-8.08,2.14-3.53,4.29-7.06,6.44-10.59,4.82-7.92,9.64-15.85,14.46-23.77.93-1.53-1.47-2.92-2.39-1.4"/>
      <path class="cls-3" d="M117.72,35.06c-.13.54-.32,1.56-.57,3.08-.41,2.5-.68,3.9-.82,4.19l-.18.49-.36-.49c-.25-.36-.49-.81-.69-1.35-.71-1.94-1.27-3.21-1.66-3.8-.39-.6-.86-.89-1.4-.89-.38,0-.72.14-1.03.41-.31.27-.47.58-.47.92s.16.82.48,1.43c.37.7.71,1.49,1.02,2.38.34.97.85,2.06,1.52,3.25.67,1.2,1.23,2.02,1.67,2.46.51.51.98.77,1.4.77.95,0,1.78-1.36,2.48-4.09.24-.94.56-2.52.96-4.75.4-2.23.6-3.55.6-3.96s-.16-.78-.47-1.07c-.32-.29-.67-.43-1.06-.43s-.7.14-.97.41c-.17.17-.32.52-.45,1.06M104.71,38.55c-.15.43-.32,1.46-.51,3.12-.19,1.65-.28,2.93-.28,3.83,0,.7.02,1.17.06,1.4.04.24.15.44.32.61.25.26.59.38,1,.38.48,0,.87-.16,1.17-.49.2-.22.34-.49.4-.81.06-.31.12-1.08.19-2.31.08-1.63.25-3.07.48-4.31.15-.8.23-1.33.23-1.58,0-.22-.04-.44-.13-.66-.2-.53-.62-.79-1.25-.79-.19,0-.43.04-.74.13-.29.07-.6.56-.94,1.48M104.54,32.14c0,.34.15.66.46.97.32.32.7.49,1.12.49.39,0,.72-.14,1-.41.27-.27.41-.62.41-1.05s-.16-.78-.47-1.07c-.32-.29-.67-.43-1.06-.43-.43,0-.78.18-1.07.54-.26.32-.38.65-.38.97M93.41,38.5c-.29-1.53-.54-2.56-.74-3.09-.24-.7-.51-1.15-.82-1.35-.27-.19-.63-.28-1.07-.28-.36,0-.65.07-.89.2-.22.14-.47.47-.74,1-.2.44-.75,1.23-1.63,2.37-.72.94-1.3,1.79-1.76,2.55-.29.56-.65,1.1-1.1,1.61-.36.46-.54.8-.54,1.02,0,.24-.14.61-.41,1.12-.31.56-.61,1.26-.91,2.11-.3.84-.45,1.41-.45,1.7,0,.31.17.6.5.88.33.28.67.42,1.01.42s.7-.23,1.07-.68c.37-.45.68-1.02.92-1.72.32-.95.61-1.51.86-1.66.25-.15,1-.24,2.26-.26.17,0,.37,0,.61-.01.24,0,.4-.01.48-.01.63,0,1.02.08,1.16.24.14.16.29.63.45,1.39.29,1.41.86,2.12,1.71,2.12.44,0,.79-.13,1.05-.38.25-.26.38-.6.38-1.05,0-.24-.16-1.11-.49-2.6-.32-1.5-.49-2.36-.49-2.58,0-.51-.14-1.53-.43-3.06M90.78,41.36h-1.1c-.73,0-1.1-.05-1.1-.15,0-.17.26-.59.78-1.25.52-.66.85-.99.98-.99h.03c.09.08.18.51.28,1.28l.13,1.12ZM76.48,35.18c0,.49-.22,1.66-.65,3.5s-.71,2.76-.83,2.76c-.51,0-1.46-.48-2.83-1.43-1.75-1.19-3-1.79-3.75-1.79-.29,0-.57.07-.84.2-.58.27-.95.63-1.12,1.09-.17.45-.27,1.39-.31,2.82-.02.39-.02.86-.02,1.4,0,.78.13,1.34.38,1.66.27.37.64.56,1.1.56.41,0,.75-.15,1.02-.46.19-.19.31-.4.36-.65.05-.25.08-.72.08-1.42,0-1.07.08-1.61.25-1.61.15,0,.62.3,1.4.89.65.49,1.48.94,2.49,1.35,1.01.41,1.79.61,2.34.61.85,0,1.48-.3,1.9-.91s.82-1.82,1.21-3.64c.6-2.71.89-4.24.89-4.6,0-.2-.04-.43-.13-.69-.24-.72-.71-1.07-1.43-1.07-.41,0-.76.16-1.07.49-.29.32-.43.63-.43.92M60.35,38.55c-.15.43-.32,1.46-.51,3.12-.19,1.65-.28,2.93-.28,3.83,0,.7.02,1.17.06,1.4.04.24.15.44.32.61.26.26.59.38,1,.38.48,0,.87-.16,1.17-.49.2-.22.34-.49.4-.81.06-.31.12-1.08.19-2.31.08-1.63.25-3.07.49-4.31.15-.8.23-1.33.23-1.58,0-.22-.04-.44-.13-.66-.2-.53-.62-.79-1.25-.79-.19,0-.43.04-.74.13-.29.07-.6.56-.94,1.48M60.17,32.14c0,.34.15.66.46.97.32.32.7.49,1.12.49.39,0,.72-.14,1-.41.27-.27.41-.62.41-1.05s-.16-.78-.47-1.07c-.32-.29-.67-.43-1.06-.43-.42,0-.78.18-1.07.54-.25.32-.38.65-.38.97M44.71,33.11c-.3.32-.45.66-.45,1.02s.16.65.49.95c.21.22.41.36.63.41.21.05.64.08,1.29.08h1.45l.23,1.02c.12.56.18,1.54.18,2.94v1.1c0,1.51.04,2.7.13,3.55.07.71.14,1.2.22,1.46.08.26.23.5.47.74.37.37.77.56,1.17.56.37,0,.75-.17,1.12-.51.27-.27.41-.53.41-.77,0-.19-.02-.34-.05-.46-.32-1.6-.49-3.48-.49-5.64-.03-2.16-.1-3.4-.2-3.7-.15-.34-.16-.58-.03-.71.07-.07.43-.14,1.07-.2.65-.07,1.32-.12,2.03-.17.71-.04,1.1-.07,1.19-.09.37-.07.67-.24.89-.51.22-.27.33-.58.33-.92,0-.43-.16-.79-.49-1.1-.31-.32-.77-.49-1.4-.49h-.31c-.97.03-1.8.1-2.5.2-.22.02-.83.1-1.83.24-.99.14-1.93.27-2.81.37-.88.1-1.49.15-1.83.15s-.63.16-.93.49M29.38,35.92c-.22.51-.33,1.36-.33,2.55,0,1.38.14,2.77.41,4.19.39,2.03.76,3.43,1.11,4.21.35.78.8,1.17,1.37,1.17.15,0,.32-.03.51-.08.75-.22,1.12-.73,1.12-1.53,0-.24-.03-.5-.08-.79-.07-.32-.1-.58-.1-.77s.04-.28.13-.28c.15,0,1.15.38,2.99,1.15,2.01.83,3.21,1.25,3.6,1.25.26,0,.52-.14.79-.41.34-.34.51-.71.51-1.1s-.2-.8-.59-1.17c-.39-.37-.94-.7-1.66-.97-.87-.32-1.66-.65-2.39-1-.72-.34-1.08-.55-1.08-.64,0-.07.18-.28.54-.64.87-.8,1.3-1.79,1.3-2.96,0-.92-.28-1.76-.83-2.53-.55-.77-1.31-1.29-2.26-1.56-.66-.2-1.21-.31-1.63-.31-.29,0-.66.06-1.1.18-.44.12-.9.39-1.37.81-.47.42-.79.82-.96,1.21M34.44,38.09c0,.15-.08.34-.26.56-.12.17-.36.38-.72.64-.36.26-.59.38-.69.38-.07,0-.14-.26-.22-.77-.08-.51-.12-.95-.12-1.33,0-.19.02-.31.05-.38.07-.14.24-.2.51-.2.41,0,.75.14,1.02.41.27.27.41.5.41.69M15.6,37.22c-.7.75-1.21,1.4-1.53,1.97-.31.51-.61,1.4-.92,2.68-.22.9-.33,1.64-.33,2.22,0,.83.37,1.73,1.1,2.68,1.16,1.51,2.57,2.33,4.24,2.45.37.03.6.05.69.05.46,0,1.12-.22,1.99-.66.9-.46,1.81-1.04,2.73-1.74.92-.7,1.57-1.3,1.94-1.81.55-.78.82-1.74.82-2.86s-.25-2.05-.77-2.78c-.36-.51-.94-1.09-1.76-1.75-.82-.65-1.59-1.16-2.32-1.52-.94-.46-1.86-.69-2.78-.69-.56,0-1.04.1-1.43.31-.41.22-.96.71-1.66,1.46M22.27,40.35c.59.57.91,1.03.98,1.39.03.15.05.35.05.59,0,.36-.09.68-.28.96-.19.28-.53.62-1.02,1.01-1.57,1.23-2.83,1.84-3.78,1.84-.36,0-.63-.05-.82-.14-.19-.09-.43-.3-.74-.63-.59-.63-.89-1.34-.89-2.12,0-1.19.68-2.54,2.04-4.03.34-.36.78-.54,1.33-.54.44,0,.88.11,1.3.33.63.32,1.24.77,1.83,1.34M4.26,33.76c-.39.16-.88.46-1.45.88-.61.44-1.08.85-1.4,1.21-.32.37-.64.84-.94,1.42-.19.39-.31.76-.37,1.1C.03,38.71,0,39.31,0,40.18c0,.94.03,1.56.09,1.86.06.31.21.66.45,1.07.51.87,1.09,1.5,1.75,1.9.66.4,1.45.6,2.39.6.05,0,.13,0,.23-.01.1,0,.18-.01.23-.01,1.04-.03,1.85-.22,2.44-.56.59-.34.88-.78.88-1.33,0-.2-.03-.38-.1-.54-.14-.37-.37-.65-.69-.82-.24-.14-.43-.2-.59-.2-.19,0-.5.08-.94.26-.53.19-.97.28-1.33.28-1,0-1.61-.65-1.81-1.97-.05-.31-.08-.59-.08-.84,0-.51.11-.95.33-1.33.22-.37.59-.77,1.12-1.2.83-.66,1.47-1,1.91-1,.27,0,.56.11.87.33.48.36.94.54,1.38.54.39,0,.72-.14,1-.41.32-.32.48-.69.48-1.1s-.18-.84-.52-1.24c-.35-.4-.83-.73-1.44-.98-.41-.17-.73-.25-.97-.25-.29,0-.7.04-1.23.13-.66.1-1.19.23-1.58.4"/>
      <path class="cls-3" d="M93.51,6.59c-.7.75-1.21,1.4-1.53,1.96-.31.51-.61,1.4-.92,2.68-.22.9-.33,1.64-.33,2.22,0,.83.37,1.73,1.1,2.68,1.16,1.51,2.57,2.33,4.24,2.45.37.03.6.05.69.05.46,0,1.12-.22,1.99-.66.9-.46,1.81-1.04,2.73-1.74.92-.7,1.57-1.3,1.94-1.81.54-.78.82-1.74.82-2.86s-.26-2.05-.77-2.78c-.36-.51-.94-1.09-1.76-1.75-.82-.65-1.59-1.16-2.32-1.52-.94-.46-1.86-.69-2.78-.69-.56,0-1.04.1-1.43.31-.41.22-.96.71-1.66,1.46M100.18,9.71c.59.57.91,1.03.98,1.39.03.15.05.35.05.59,0,.36-.09.68-.28.96-.19.28-.53.62-1.02,1.01-1.57,1.22-2.82,1.84-3.78,1.84-.36,0-.63-.05-.82-.14-.19-.09-.43-.3-.74-.62-.6-.63-.89-1.34-.89-2.12,0-1.19.68-2.54,2.04-4.03.34-.36.78-.54,1.33-.54.44,0,.88.11,1.3.33.63.32,1.24.77,1.82,1.34M84.9,4.54c0,.49-.22,1.66-.65,3.5-.43,1.84-.71,2.76-.83,2.76-.51,0-1.46-.48-2.83-1.43-1.75-1.19-3-1.79-3.75-1.79-.29,0-.57.07-.84.2-.58.27-.95.64-1.12,1.09-.17.45-.27,1.39-.31,2.82-.02.39-.03.86-.03,1.4,0,.78.13,1.34.38,1.66.27.38.64.56,1.1.56.41,0,.75-.15,1.02-.46.19-.19.31-.4.36-.65.05-.25.08-.72.08-1.42,0-1.07.08-1.61.25-1.61.15,0,.62.3,1.4.89.65.49,1.48.95,2.49,1.35,1.01.41,1.79.61,2.34.61.85,0,1.49-.3,1.9-.91.42-.6.82-1.82,1.21-3.64.6-2.71.89-4.24.89-4.6,0-.2-.04-.43-.13-.69-.24-.71-.71-1.07-1.43-1.07-.41,0-.77.16-1.07.49-.29.32-.43.63-.43.92M68.77,7.91c-.15.43-.32,1.46-.51,3.11-.19,1.65-.28,2.93-.28,3.83,0,.7.02,1.17.06,1.4.04.24.15.44.32.61.25.26.59.38.99.38.48,0,.87-.16,1.18-.49.2-.22.34-.49.39-.8.06-.32.12-1.09.19-2.31.08-1.63.25-3.07.49-4.31.15-.8.23-1.33.23-1.58,0-.22-.04-.44-.13-.66-.2-.53-.62-.79-1.25-.79-.19,0-.43.04-.74.13-.29.07-.6.56-.94,1.48M68.59,1.51c0,.34.15.66.46.97.32.32.7.49,1.12.49.39,0,.72-.14,1-.41.27-.27.41-.62.41-1.05s-.16-.78-.47-1.07c-.31-.29-.67-.43-1.06-.43-.43,0-.78.18-1.07.54-.26.32-.38.65-.38.97M56.59,3.5c0,.26.06.55.18.89.14.44.21.85.21,1.22,0,.27-.04.82-.13,1.63-.14,1.5-.2,3.12-.2,4.88,0,1.36.02,2.2.06,2.53.04.32.18.65.42.97.49.65,1.23.97,2.22.97.46,0,1.14-.07,2.04-.2,1.43-.22,2.36-.42,2.78-.59.7-.29,1.05-.77,1.05-1.46,0-.48-.21-.85-.64-1.12-.24-.15-.49-.23-.77-.23-.25,0-.87.08-1.84.23-.92.14-1.54.2-1.86.2-.22,0-.36-.03-.41-.08-.05-.05-.08-.33-.08-.84,0-.73.03-1.61.1-2.63.15-2.37.23-3.81.23-4.34,0-.82-.06-1.42-.18-1.82-.12-.4-.33-.76-.64-1.08-.29-.29-.69-.43-1.2-.43-.43,0-.74.11-.94.33-.27.34-.41.66-.41.97M47.66.87c-1.51.31-2.4.61-2.65.89-.22.24-.33.56-.33.97,0,.36.09.66.28.92.14.19.2.42.2.69,0,.38-.07.97-.2,1.79-.2,1.35-.31,2.48-.31,3.4,0,1.74.43,3.04,1.28,3.91.66.72,1.58,1.07,2.76,1.07.37,0,.82-.02,1.33-.08.7-.07,1.18-.14,1.46-.22.27-.08.48-.21.61-.4.24-.29.36-.6.36-.95,0-.43-.16-.8-.49-1.12-.19-.19-.36-.31-.52-.37-.16-.06-.43-.09-.81-.09-.07,0-.19,0-.38.01-.19,0-.34.01-.46.01-.24.02-.54.03-.89.03-.54,0-.88-.09-1-.28-.08-.12-.13-.22-.13-.31,0-.15.15-.29.45-.41.3-.12.9-.3,1.8-.54,1.12-.29,1.87-.57,2.25-.85.37-.28.56-.68.56-1.19,0-.71-.34-1.18-1.02-1.4-.02-.02-.07-.03-.15-.03-.27,0-.88.11-1.81.33-.94.22-1.45.33-1.53.33-.22,0-.33-.19-.33-.56,0-.32.08-.85.23-1.58l.26-1.07,1.84-.33c1.38-.27,2.18-.46,2.4-.56.34-.14.61-.35.8-.62.2-.28.29-.57.29-.88,0-.37-.14-.7-.43-.97C53.08.14,52.71,0,52.25,0c-.29,0-.75.07-1.38.21-1.29.27-2.37.49-3.22.66M38.97,4.43c-.13.54-.32,1.56-.57,3.08-.41,2.5-.68,3.9-.82,4.19l-.18.49-.36-.49c-.26-.36-.49-.81-.69-1.35-.72-1.94-1.27-3.21-1.66-3.8-.39-.6-.86-.89-1.4-.89-.37,0-.72.14-1.03.41-.32.27-.47.58-.47.92s.16.82.49,1.43c.37.7.71,1.49,1.02,2.37.34.97.85,2.06,1.52,3.26s1.23,2.02,1.67,2.46c.51.51.98.77,1.4.77.95,0,1.78-1.36,2.48-4.08.24-.94.56-2.52.96-4.75.4-2.23.6-3.55.6-3.96s-.16-.78-.47-1.07c-.31-.29-.67-.43-1.06-.43s-.7.14-.97.41c-.17.17-.32.52-.45,1.06M27.57,7.86c-.29-1.53-.54-2.56-.74-3.09-.24-.7-.51-1.15-.82-1.35-.27-.19-.63-.28-1.07-.28-.36,0-.66.07-.89.2-.22.14-.47.47-.74,1-.2.44-.75,1.23-1.63,2.37-.71.94-1.3,1.79-1.76,2.55-.29.56-.66,1.1-1.1,1.61-.36.46-.54.8-.54,1.02,0,.24-.14.61-.41,1.12-.31.56-.61,1.26-.91,2.11-.3.84-.45,1.41-.45,1.7,0,.31.17.6.5.88.33.28.67.42,1.01.42s.7-.23,1.07-.68c.37-.45.68-1.03.92-1.72.32-.95.61-1.51.85-1.66s1-.24,2.26-.25c.17,0,.37,0,.61-.01.24,0,.4-.01.49-.01.63,0,1.02.08,1.16.24.14.16.29.62.45,1.39.29,1.41.86,2.12,1.71,2.12.44,0,.79-.13,1.05-.38.26-.26.38-.6.38-1.05,0-.24-.16-1.11-.48-2.6-.32-1.5-.49-2.36-.49-2.58,0-.51-.14-1.53-.43-3.06M24.94,10.72h-1.1c-.73,0-1.1-.05-1.1-.15,0-.17.26-.59.78-1.25.52-.66.85-1,.98-1h.03c.08.09.18.51.28,1.28l.13,1.12Z"/>
    </g>
  </g>
</svg>